<?xml version="1.0" encoding="UTF-8" standalone="yes"?>
<svg xmlns="http://www.w3.org/2000/svg" viewBox="0 0 24 24" width="24" height="24" fill="#000000">
  <path d="M 14.490234 2.4902344 A 1.0001 1.0001 0 0 0 13.792969 4.2070312 L 14.388672 4.8027344 L 8.1894531 9.7753906 L 7.2070312 8.7929688 A 1.0001 1.0001 0 0 0 6.4902344 8.4902344 A 1.0001 1.0001 0 0 0 5.7929688 10.207031 L 9.09375 13.507812 L 3.2890625 19.310547 C 2.9020625 19.697547 2.9020625 20.323937 3.2890625 20.710938 C 3.6760625 21.097938 4.3024531 21.097938 4.6894531 20.710938 L 10.492188 14.90625 L 13.792969 18.207031 A 1.0001 1.0001 0 1 0 15.207031 16.792969 L 14.310547 15.896484 L 19.214844 9.6289062 L 19.792969 10.207031 A 1.0001 1.0001 0 1 0 21.207031 8.7929688 L 15.207031 2.7929688 A 1.0001 1.0001 0 0 0 14.490234 2.4902344 z"/>
</svg>
